<?xml version="1.0" encoding="UTF-8"?>
<svg width="128" height="128" viewBox="0 0 128 128" xmlns="http://www.w3.org/2000/svg">
  <!-- BootDrive app icon (GNOME Circle style): a smartphone behind a USB flash
       drive — the phone turned into a bootable USB drive. Dimensional: light
       from above, gradient bodies, gloss. -->
  <defs>
    <linearGradient id="screen" x1="0" y1="0" x2="1" y2="1">
      <stop offset="0" stop-color="#3a4a6b"/>
      <stop offset="1" stop-color="#1b2236"/>
    </linearGradient>
    <linearGradient id="frame" x1="0" y1="0" x2="1" y2="0">
      <stop offset="0" stop-color="#50504e"/>
      <stop offset="0.5" stop-color="#2b2b2b"/>
      <stop offset="1" stop-color="#141414"/>
    </linearGradient>
    <linearGradient id="usb" x1="0" y1="0" x2="0" y2="1">
      <stop offset="0" stop-color="#62a0ea"/>
      <stop offset="1" stop-color="#1a5fb4"/>
    </linearGradient>
    <linearGradient id="metal" x1="0" y1="0" x2="0" y2="1">
      <stop offset="0" stop-color="#eceae8"/>
      <stop offset="1" stop-color="#9a9996"/>
    </linearGradient>
  </defs>

  <!-- Smartphone (back, tilted left) -->
  <g transform="rotate(-9 46 64)">
    <rect x="14" y="6" width="58" height="118" rx="14" fill="#0e0e0e"/>
    <rect x="14" y="6" width="58" height="118" rx="14" fill="url(#frame)"/>
    <rect x="19" y="12" width="48" height="106" rx="8" fill="url(#screen)"/>
    <path d="M22 16 h42 v12 l-42 30 z" fill="#ffffff" opacity="0.07"/>
    <rect x="37" y="8.5" width="12" height="2" rx="1" fill="#2b2b2b"/>
  </g>

  <!-- USB flash drive (front, right) -->
  <!-- metal connector -->
  <rect x="70" y="18" width="32" height="27" rx="5" fill="#6f6e6b"/>
  <rect x="70" y="18" width="32" height="24" rx="5" fill="url(#metal)"/>
  <rect x="77" y="25" width="18" height="7" rx="2" fill="#ffffff" opacity="0.55"/>
  <!-- body -->
  <rect x="63" y="44" width="44" height="78" rx="13" fill="#123c69"/>
  <rect x="63" y="42" width="44" height="74" rx="13" fill="url(#usb)"/>
  <rect x="70" y="47" width="30" height="5" rx="2.5" fill="#8fbdf3"/>

  <!-- USB trident -->
  <g stroke="#ffffff" stroke-width="4" stroke-linecap="round" stroke-linejoin="round" fill="none">
    <line x1="85" y1="66" x2="85" y2="106"/>
    <line x1="85" y1="83" x2="74" y2="73"/>
    <line x1="85" y1="91" x2="96" y2="81"/>
  </g>
  <path d="M85 58 l-6 8 h12 z" fill="#ffffff"/>
  <circle cx="85" cy="108" r="4.5" fill="#ffffff"/>
  <circle cx="72" cy="71" r="4" fill="#ffffff"/>
  <rect x="94" y="76.5" width="6.5" height="6.5" rx="1" fill="#ffffff"/>
</svg>
